<svg version="1.1" id="Layer_1" xmlns="http://www.w3.org/2000/svg" xmlns:xlink="http://www.w3.org/1999/xlink" x="0px" y="0px"
	 width="100%" viewBox="0 0 1024 1024" enable-background="new 0 0 1024 1024" xml:space="preserve">
<path fill="#000000" opacity="1.000000" stroke="none" 
	d="
M526.224854,441.103088 
	C512.604004,477.312561 498.995941,513.114868 485.728333,549.042847 
	C483.767456,554.352844 481.450928,556.621826 475.441650,556.393066 
	C461.053497,555.845154 461.127350,556.154602 455.427551,542.648926 
	C443.965485,515.489563 432.400116,488.373779 420.870483,461.242950 
	C420.224457,459.722809 419.734863,458.098114 418.094269,456.782074 
	C415.773315,458.383118 415.275665,461.114258 414.300415,463.442383 
	C402.588684,491.400452 390.992706,519.407043 379.259094,547.355896 
	C374.702942,558.208435 376.636871,556.121887 366.055969,556.199463 
	C354.225159,556.286194 354.288605,556.166260 349.943512,545.084473 
	C327.693268,488.337097 305.403412,431.605194 283.136536,374.864319 
	C278.277374,362.482025 272.885773,350.530487 259.247223,345.294373 
	C260.346771,343.145477 261.848969,343.689362 263.044373,343.685974 
	C277.877014,343.643951 292.710480,343.741669 307.541992,343.607117 
	C310.868011,343.576965 312.595154,344.664093 313.799652,347.863647 
	C326.178589,380.746216 338.715424,413.569305 351.184357,446.418030 
	C355.379211,457.469116 359.492188,468.551270 363.683655,479.603638 
	C364.142212,480.812744 364.454987,482.182709 366.373108,483.269257 
	C367.565887,480.780396 368.826080,478.341949 369.922974,475.832184 
	C379.194489,454.618347 388.421631,433.385132 397.705688,412.176758 
	C398.831421,409.605194 399.138702,407.205109 397.994781,404.495483 
	C393.525818,393.909882 389.319275,383.212738 384.793304,372.652130 
	C379.649078,360.648865 372.401001,350.547577 359.310089,346.103455 
	C358.890198,345.960938 358.571625,345.489594 358.239349,345.139709 
	C358.152161,345.047913 358.190826,344.836578 358.157318,344.562622 
	C359.186127,343.061981 360.819580,343.711151 362.183411,343.701569 
	C371.015991,343.639526 379.870087,344.057617 388.677521,343.582947 
	C403.608154,342.778229 413.345001,350.090393 419.908447,362.603882 
	C426.340759,374.867371 430.944336,387.943237 436.249512,400.701477 
	C447.054504,426.686005 457.630066,452.765961 468.315247,478.800354 
	C468.872375,480.157806 469.570160,481.457489 470.371613,483.138885 
	C472.742767,481.505463 473.074677,479.124329 473.843353,477.074982 
	C489.925629,434.199066 506.018127,391.326843 521.956787,348.397522 
	C523.259460,344.888824 524.884521,343.449615 528.746948,343.562317 
	C538.238342,343.839264 547.743469,343.639038 557.243103,343.641479 
	C558.726013,343.641846 560.251221,343.423279 562.516846,344.836304 
	C550.503174,376.689819 538.425476,408.713165 526.224854,441.103088 
z"/>
<path fill="#000000" opacity="1.000000" stroke="none" 
	d="
M524.198608,477.508759 
	C522.953918,475.025757 522.264099,472.927460 523.210693,470.472168 
	C528.600037,456.492889 533.905701,442.481323 539.264954,428.490356 
	C539.490295,427.902161 539.965088,427.409546 541.045593,425.791077 
	C551.117981,446.491547 560.848938,466.490356 570.594299,486.518646 
	C573.500854,485.132355 574.098022,483.133179 574.972900,481.393402 
	C595.695923,440.182800 616.777344,399.144989 636.843079,357.616455 
	C641.980286,346.984375 647.580811,341.233490 659.914185,343.415741 
	C665.560608,344.414795 671.554321,343.734406 677.367126,343.404236 
	C680.953125,343.200562 682.064880,344.593170 682.189758,347.931702 
	C682.799744,364.232269 683.563110,380.527008 684.234558,396.825378 
	C685.645813,431.085327 686.858337,465.354797 688.527893,499.602051 
	C689.093750,511.208649 690.225281,522.859375 695.391479,533.640015 
	C699.725952,542.684998 705.875122,549.807129 715.480469,553.473694 
	C716.242737,553.764648 717.086670,553.988098 717.114563,555.232849 
	C716.854065,555.452820 716.505066,556.005676 716.151794,556.008423 
	C704.346252,556.100525 692.515259,557.074768 680.746399,555.554749 
	C670.041443,554.172119 662.872681,547.933472 658.533752,538.313232 
	C653.366455,526.856079 652.378967,514.560303 651.735168,502.238342 
	C650.294678,474.671356 648.926636,447.100586 647.498535,418.928772 
	C645.291931,420.047119 644.849182,421.841705 644.101868,423.328857 
	C627.356995,456.648285 610.638855,489.981110 593.892822,523.299988 
	C589.033569,532.968140 583.925537,542.516418 579.293945,552.291321 
	C577.441223,556.201294 574.516296,556.339539 571.078735,556.247070 
	C567.496582,556.150635 564.042664,556.851807 561.838562,552.396729 
	C549.508423,527.474365 536.897583,502.690918 524.198608,477.508759 
z"/>
<path fill="#000000" opacity="1.000000" stroke="none" 
	d="
M475.433899,451.323975 
	C473.718536,455.119904 473.139832,458.989044 471.013275,462.107727 
	C468.967499,462.089294 468.770233,460.559601 468.305939,459.417114 
	C462.606079,445.391571 457.003113,431.326233 451.211548,417.338898 
	C450.307129,415.154602 450.226746,413.304840 450.987091,411.136688 
	C458.365509,390.097748 465.728424,369.053009 472.968018,347.966095 
	C474.037262,344.851776 475.540955,343.405975 479.036926,343.521423 
	C486.522797,343.768677 494.024780,343.695557 501.515594,343.536591 
	C504.264832,343.478241 505.557983,344.558197 506.818390,346.963318 
	C510.124420,353.271881 510.093811,359.068787 507.444305,365.888123 
	C496.478424,394.112457 486.136597,422.579224 475.433899,451.323975 
z"/>
<path fill="#000000" opacity="1.000000" stroke="none" 
	d="
M291.271729,643.939331 
	C295.384064,658.143616 299.423706,671.956848 303.463348,685.770081 
	C303.817505,685.765625 304.171631,685.761108 304.525787,685.756653 
	C308.238647,674.086426 311.954193,662.417114 315.662628,650.745483 
	C316.620178,647.731628 317.861267,644.767090 318.430603,641.680054 
	C319.319824,636.858704 321.780212,635.301331 326.703979,635.420105 
	C330.770477,635.518188 332.551941,636.751587 333.709564,640.574036 
	C338.098236,655.065552 342.790894,669.465088 347.384155,683.894470 
	C347.630829,684.669250 348.008423,685.402344 348.772217,687.217346 
	C353.243134,671.719543 357.471008,657.214355 361.603119,642.682068 
	C363.902649,634.594727 366.084534,633.424988 374.984070,636.302979 
	C373.967072,642.773499 371.615601,648.957275 369.721375,655.245361 
	C365.304871,669.906250 360.547882,684.471008 356.463165,699.222595 
	C354.615143,705.896606 349.586090,702.748169 345.902832,703.633850 
	C342.604401,704.427063 341.752625,701.768677 340.979370,699.274292 
	C336.592377,685.122681 332.182404,670.978271 327.767761,656.835327 
	C327.425629,655.739136 326.987640,654.672852 326.117249,652.283325 
	C323.942963,658.670288 322.083405,663.905090 320.378387,669.189697 
	C317.056305,679.486206 313.762146,689.792725 310.592804,700.136902 
	C309.846741,702.572021 308.693573,704.175354 306.049408,703.511536 
	C302.693329,702.669006 297.901703,705.663391 296.217682,700.199829 
	C289.892700,679.679382 283.641876,659.135925 277.384125,638.594788 
	C277.198303,637.984863 277.243866,637.304443 277.185272,636.695496 
	C285.983582,633.560608 288.381348,634.755066 291.271729,643.939331 
z"/>
<path fill="#000000" opacity="1.000000" stroke="none" 
	d="
M498.722168,677.321228 
	C505.418518,664.477356 511.958282,651.923889 518.521179,639.382385 
	C520.560181,635.485901 527.194580,633.447571 530.875916,635.481323 
	C532.771301,636.528381 532.361328,638.314392 532.367615,639.901428 
	C532.410278,650.562927 532.322510,661.225159 532.409729,671.886047 
	C532.480530,680.543884 532.607727,689.205444 532.963745,697.854919 
	C533.147522,702.322815 531.250183,703.495544 527.022217,703.483032 
	C522.811157,703.470581 521.573486,701.937073 521.624573,697.907288 
	C521.797485,684.271423 521.690491,670.632080 521.690491,655.489258 
	C515.498169,667.261963 509.973907,677.763916 504.450806,688.266541 
	C503.985687,689.151001 503.527496,690.039062 503.067322,690.926086 
	C501.816895,693.336792 500.590485,695.425293 497.191467,695.411377 
	C493.850891,695.397644 492.573181,693.483398 491.273438,691.009521 
	C486.239380,681.427917 481.122620,671.889709 476.022247,662.342957 
	C475.033295,660.491821 473.979858,658.675110 472.299316,655.666626 
	C472.299316,670.281189 472.307312,683.543823 472.295746,696.806396 
	C472.290375,702.960022 469.561920,704.893372 463.527588,703.273987 
	C461.066010,702.613342 461.123383,700.756653 461.119049,698.965332 
	C461.071533,679.308167 461.056824,659.650818 461.083710,639.993591 
	C461.086639,637.846558 461.038025,635.125366 464.074921,635.176086 
	C467.968048,635.241150 472.589508,633.215942 475.198853,638.263367 
	C481.240234,649.949646 487.325165,661.613342 493.402069,673.281250 
	C494.247223,674.903870 495.063538,676.551086 496.043427,678.091309 
	C497.152252,679.834351 497.880676,678.600037 498.722168,677.321228 
z"/>
<path fill="#000000" opacity="1.000000" stroke="none" 
	d="
M587.660034,635.811157 
	C603.601868,639.713989 612.152039,648.439087 614.136658,662.436584 
	C616.419861,678.540588 610.814392,692.256775 599.252197,698.993591 
	C592.844482,702.727173 585.744934,703.503479 578.574890,703.796753 
	C573.257996,704.014160 567.924927,703.802612 562.601440,703.906616 
	C559.175232,703.973389 557.899292,702.383606 557.910156,699.048218 
	C557.974670,679.243652 557.980469,659.438660 557.908264,639.634094 
	C557.895508,636.126343 559.491577,634.902954 562.785461,635.023376 
	C570.930176,635.321167 579.078552,635.521179 587.660034,635.811157 
M586.299011,646.087585 
	C582.400085,644.871826 578.374329,645.615417 574.420715,645.297607 
	C570.422180,644.976135 569.231445,646.787170 569.291382,650.577942 
	C569.459534,661.204956 569.271362,671.837158 569.381470,682.465698 
	C569.515076,695.357422 567.239746,693.706421 580.741516,693.641846 
	C592.647400,693.584900 601.010864,686.340576 602.608643,675.189819 
	C604.755920,660.203064 599.310181,650.040283 586.299011,646.087585 
z"/>
<path fill="#000000" opacity="1.000000" stroke="none" 
	d="
M711.056519,634.976929 
	C717.696228,635.100708 723.844666,634.769897 729.987183,635.584473 
	C739.899597,636.899048 746.411865,642.290466 748.411560,651.181946 
	C750.610657,660.960144 747.112122,669.074585 738.366394,674.517883 
	C737.813538,674.861938 737.323059,675.306274 736.356628,676.046021 
	C741.769531,684.751465 747.152527,693.408813 752.605835,702.179321 
	C743.897461,705.060852 740.530762,703.889954 736.363525,697.114319 
	C732.965027,691.588684 729.506104,686.099731 726.030945,680.621887 
	C724.206665,677.746460 717.190918,676.082336 714.495911,677.805542 
	C712.934937,678.803833 713.224365,680.412720 713.211792,681.856873 
	C713.162720,687.513855 713.039917,693.176880 713.238770,698.827271 
	C713.397522,703.337524 710.634583,703.374695 707.382874,703.399475 
	C704.064026,703.424683 701.606750,703.232300 701.640137,698.758789 
	C701.787781,678.958740 701.737366,659.156738 701.643982,639.355896 
	C701.628662,636.108948 702.925598,634.770813 706.072754,634.937683 
	C707.566528,635.016907 709.067139,634.967102 711.056519,634.976929 
M718.706665,645.295227 
	C714.273560,644.669739 712.594604,646.702271 713.102600,650.989685 
	C713.258057,652.301392 713.139465,653.645813 713.142822,654.975220 
	C713.179138,669.318787 713.955078,669.938293 728.345215,667.871460 
	C732.678955,667.249023 735.302979,664.706299 736.471375,660.786560 
	C739.115112,651.917419 734.371521,645.582153 725.107300,645.328979 
	C723.280457,645.279053 721.451599,645.304077 718.706665,645.295227 
z"/>
<path fill="#000000" opacity="1.000000" stroke="none" 
	d="
M634.970703,672.000000 
	C634.957764,661.180603 635.051880,650.859619 634.886597,640.542725 
	C634.822266,636.525085 636.216248,634.866943 640.392944,634.938599 
	C651.874268,635.135559 663.361328,635.093384 674.844971,635.000244 
	C678.765259,634.968506 680.450073,636.274048 680.433228,640.514282 
	C680.416138,644.806946 678.375305,645.416870 674.859680,645.355408 
	C667.039429,645.218628 659.211426,645.465576 651.393555,645.273071 
	C647.344482,645.173401 646.088745,646.869934 646.436951,650.675964 
	C646.812744,654.783508 646.860168,658.921082 647.092834,663.953979 
	C655.091736,663.953979 663.017273,664.057434 670.938110,663.910156 
	C674.866333,663.837036 676.283569,665.535583 676.128723,669.325989 
	C676.007751,672.286865 674.789917,673.445007 671.841370,673.402222 
	C664.852478,673.300659 657.858704,673.494995 650.871277,673.352905 
	C647.371826,673.281799 646.126160,674.659485 646.367859,678.110352 
	C646.610962,681.580444 646.611877,685.096130 646.356445,688.565125 
	C646.062134,692.562317 647.761292,693.823547 651.591980,693.742310 
	C659.910095,693.565918 668.237610,693.831909 676.555847,693.657898 
	C680.455444,693.576355 681.288208,695.423279 681.304077,698.853516 
	C681.320557,702.418274 679.753418,703.439819 676.454468,703.412964 
	C664.304993,703.313965 652.152710,703.272339 640.004883,703.447510 
	C636.255249,703.501587 634.997681,702.020508 635.032410,698.464294 
	C635.116882,689.810547 635.006226,681.154907 634.970703,672.000000 
z"/>
<path fill="#000000" opacity="1.000000" stroke="none" 
	d="
M426.734985,673.379150 
	C421.102875,673.379761 415.934875,673.456055 410.770447,673.353943 
	C407.691956,673.293091 406.082367,674.378418 406.180664,677.684631 
	C406.299469,681.680725 406.292450,685.686340 406.163696,689.682129 
	C406.064178,692.771179 407.515900,693.730042 410.415497,693.701050 
	C419.080811,693.614502 427.748108,693.732422 436.413940,693.674744 
	C439.157684,693.656494 441.118866,694.238464 440.622650,697.547607 
	C440.234833,700.133667 441.188568,703.459106 436.560242,703.415649 
	C423.728760,703.295227 410.894897,703.372681 398.062531,703.459351 
	C395.344666,703.477661 394.684143,702.120667 394.687408,699.734192 
	C394.714905,679.568237 394.730103,659.402161 394.641785,639.236572 
	C394.628235,636.145203 396.008057,634.966980 398.847961,635.138733 
	C411.336395,635.893982 423.828552,635.725403 436.321014,635.321411 
	C439.474396,635.219421 440.355713,636.944153 440.231232,639.727600 
	C440.113586,642.358032 440.746460,645.330872 436.529541,645.306702 
	C428.196930,645.258911 419.861359,645.436646 411.531921,645.272339 
	C407.778168,645.198303 406.040222,646.322327 406.160553,650.374023 
	C406.637146,666.424133 403.699219,663.613770 419.469696,663.946350 
	C422.967987,664.020203 426.474152,664.071838 429.967743,663.923279 
	C433.619263,663.767944 435.382202,664.864502 435.422516,668.991150 
	C435.463165,673.150330 433.524658,673.778198 430.198822,673.408447 
	C429.210571,673.298584 428.200623,673.383911 426.734985,673.379150 
z"/>
<path fill="#000000" opacity="1.000000" stroke="none" 
	d="
M423.718811,497.979004 
	C424.339508,496.613617 424.852875,495.601837 425.301300,494.717987 
	C427.166565,494.596832 427.440643,495.929199 427.864166,496.928558 
	C433.830688,511.007507 439.771240,525.097534 445.683960,539.199158 
	C447.023132,542.393066 444.952881,552.812744 442.530579,555.062866 
	C441.967743,555.585632 441.084778,556.051208 440.346649,556.054932 
	C428.258942,556.115723 416.170837,556.098083 402.619202,556.098083 
	C409.853027,536.192383 416.732269,517.262451 423.718811,497.979004 
z"/>
<path fill="#000000" opacity="1.000000" stroke="none" 
	d="
M538.610718,750.633484 
	C540.690552,747.693604 540.831421,742.547974 545.603455,743.794006 
	C550.194763,744.992798 547.664124,749.468567 547.924866,752.411865 
	C548.393677,757.703552 548.184448,763.062256 548.116394,768.391174 
	C548.088257,770.593628 548.693848,773.703979 545.225281,773.665405 
	C541.997375,773.629456 542.783569,770.646667 542.730896,768.642151 
	C542.617920,764.340393 542.696228,760.033569 541.695984,755.366150 
	C539.709961,759.226440 537.798157,763.127258 535.718384,766.936401 
	C533.318909,771.331177 531.223694,771.384277 528.676575,767.068787 
	C526.675964,763.679077 524.920105,760.144897 522.206421,756.820129 
	C522.206421,761.226318 522.215881,765.632568 522.202087,770.038757 
	C522.195984,771.992249 521.941162,773.895508 519.353821,773.783203 
	C517.140747,773.687073 516.793396,771.973145 516.785950,770.202148 
	C516.754517,762.706604 516.729126,755.210754 516.761047,747.715271 
	C516.768066,746.079895 516.668335,744.251343 518.956543,743.835510 
	C521.021545,743.460205 522.518433,744.190979 523.494934,746.056946 
	C526.247620,751.316772 529.016846,756.567993 532.149841,762.526672 
	C534.512329,758.193359 536.481689,754.581177 538.610718,750.633484 
z"/>
<path fill="#000000" opacity="1.000000" stroke="none" 
	d="
M450.780701,768.209717 
	C447.418884,763.739502 444.268097,759.558960 441.117310,755.378479 
	C440.804260,755.510803 440.491180,755.643188 440.178131,755.775513 
	C440.178131,760.383667 440.202606,764.992004 440.166138,769.599854 
	C440.151459,771.457764 440.133850,773.583801 437.620239,773.714355 
	C434.649109,773.868530 434.782288,771.492371 434.767303,769.495300 
	C434.713562,762.336426 434.684113,755.176941 434.719666,748.018066 
	C434.727509,746.440063 434.329712,744.506714 436.585358,743.927612 
	C438.521393,743.430603 439.739685,744.571167 440.769989,745.968140 
	C444.806396,751.440857 448.826508,756.925537 453.845947,762.256836 
	C453.845947,758.042358 453.719696,753.822632 453.897156,749.615601 
	C453.991302,747.383484 452.781372,743.894714 456.740112,743.931824 
	C460.429138,743.966309 459.171570,747.294922 459.223663,749.335815 
	C459.385071,755.658569 459.351624,761.988953 459.248047,768.313965 
	C459.217834,770.158691 460.182434,772.646729 457.603271,773.531494 
	C454.975372,774.432983 453.771729,772.237915 452.481781,770.503357 
	C451.985016,769.835388 451.488373,769.167419 450.780701,768.209717 
z"/>
<path fill="#000000" opacity="1.000000" stroke="none" 
	d="
M486.782104,774.217529 
	C482.059998,774.188232 478.555786,772.697937 476.700806,768.539307 
	C474.971161,764.661682 476.254639,761.312073 479.100494,758.619080 
	C481.041748,756.782288 480.310974,755.124023 479.568390,753.235046 
	C478.066254,749.413513 479.076752,746.186340 482.622681,744.312866 
	C485.748718,742.661255 489.256348,742.669617 491.756287,745.595764 
	C494.386536,748.674438 494.112335,752.320801 491.432770,755.100830 
	C488.264435,758.388245 489.859528,760.195190 492.473206,762.110535 
	C494.011688,761.903870 493.984100,760.692688 494.376770,759.851318 
	C494.971344,758.577209 495.892822,758.194824 497.207825,758.518738 
	C498.808838,758.913025 499.604004,760.195129 499.101227,761.500061 
	C497.503448,765.647583 497.455627,769.416138 502.661591,773.415344 
	C496.296661,773.741028 491.452698,771.226013 486.782104,774.217529 
M481.794037,766.709595 
	C483.160217,768.807678 484.891418,770.169312 487.562378,769.356750 
	C488.519135,769.065674 489.751343,768.388123 489.398560,767.382446 
	C488.394836,764.520996 486.195557,762.577881 483.682648,760.847290 
	C481.676514,762.239929 481.001251,763.905701 481.794037,766.709595 
M484.214111,750.486572 
	C484.413391,751.978821 484.627350,753.802734 486.701233,753.042419 
	C488.084686,752.535156 489.089264,750.870728 488.094849,749.401611 
	C486.879700,747.606384 485.380127,747.883850 484.214111,750.486572 
z"/>
<path fill="#000000" opacity="1.000000" stroke="none" 
	d="
M636.881531,771.485046 
	C636.782043,763.394348 636.823730,755.745483 636.696228,748.099426 
	C636.644043,744.972778 637.759644,743.440186 641.046082,743.653809 
	C643.364258,743.804504 645.700500,743.651306 648.027344,743.698792 
	C652.189636,743.783691 655.497742,745.358948 657.113647,749.418396 
	C658.695557,753.392639 657.879944,756.903687 654.707458,759.836670 
	C654.236206,760.272461 653.862000,760.813171 653.419800,761.332458 
	C654.706909,765.542419 658.219238,768.583252 659.112793,773.017822 
	C655.983276,774.790405 653.935852,773.867798 652.320557,771.190186 
	C650.948364,768.915527 649.607666,766.611633 648.071533,764.449768 
	C647.018433,762.967834 645.294373,762.490051 643.605103,763.042603 
	C641.999939,763.567627 642.360046,765.198059 642.300781,766.484863 
	C642.239624,767.812683 642.277283,769.144775 642.246582,770.474426 
	C642.215027,771.838806 642.117676,773.240906 640.515503,773.705139 
	C638.848450,774.188049 637.587891,773.629700 636.881531,771.485046 
M650.069336,749.358154 
	C647.596863,748.253540 644.658142,747.100586 642.874084,749.610901 
	C641.539856,751.488220 641.521362,754.651489 643.002258,756.683777 
	C644.410400,758.616150 647.083252,758.033875 648.986694,757.179016 
	C652.499756,755.601257 652.615112,752.863037 650.069336,749.358154 
z"/>
<path fill="#000000" opacity="1.000000" stroke="none" 
	d="
M400.705200,758.087708 
	C401.057709,752.982239 402.581421,748.850403 406.399567,745.888123 
	C410.580688,742.644226 416.562988,742.182739 420.959991,744.945251 
	C426.481750,748.414429 428.389130,753.890747 427.944580,760.014282 
	C427.316071,768.671692 421.465027,774.376770 414.094940,774.183411 
	C406.161835,773.975342 401.499817,768.523804 400.705200,758.087708 
M412.137970,768.701538 
	C416.788635,769.738831 419.924103,767.869507 421.472046,763.510132 
	C423.315002,758.319763 421.704620,751.594482 418.312744,749.419739 
	C414.707947,747.108582 410.451294,748.138062 408.003876,751.913025 
	C404.524872,757.278992 405.999451,764.509583 412.137970,768.701538 
z"/>
<path fill="#000000" opacity="1.000000" stroke="none" 
	d="
M368.512024,760.902344 
	C361.257965,761.038879 361.264679,761.038940 361.195679,767.853455 
	C361.182251,769.180054 361.222137,770.527100 361.007080,771.826599 
	C360.746307,773.401917 359.548889,773.952576 358.057861,773.834656 
	C356.723633,773.729065 355.838409,772.953979 355.829315,771.615906 
	C355.771667,763.145996 355.758179,754.675720 355.777130,746.205688 
	C355.780701,744.615601 356.729950,743.824219 358.328583,743.815735 
	C359.929199,743.807190 360.799377,744.649841 360.994843,746.174622 
	C361.121033,747.159058 361.130920,748.160645 361.155701,749.155457 
	C361.321869,755.821960 361.332886,755.556458 367.775269,755.902405 
	C372.587097,756.160767 374.573792,754.494202 373.915894,749.684387 
	C373.761292,748.553894 373.935364,747.359924 374.082947,746.211182 
	C374.275940,744.708984 375.110809,743.822998 376.731415,743.826599 
	C378.340546,743.830200 379.272888,744.619629 379.280334,746.208984 
	C379.319275,754.514099 379.317596,762.819397 379.302277,771.124634 
	C379.299438,772.669373 378.551971,773.660461 376.897614,773.665283 
	C375.374725,773.669739 374.284729,772.938782 374.132141,771.385315 
	C373.937897,769.407532 373.741272,767.390137 373.920319,765.424011 
	C374.273041,761.549927 372.518463,760.286743 368.512024,760.902344 
z"/>
<path fill="#000000" opacity="1.000000" stroke="none" 
	d="
M695.862488,753.228516 
	C698.488770,759.880188 700.958740,766.177002 703.489441,772.628662 
	C700.387634,774.481934 698.133972,774.172424 697.127014,771.212402 
	C695.883484,767.557129 693.915344,766.078491 689.869263,766.038879 
	C685.545105,765.996704 683.089844,767.257629 681.796753,771.469666 
	C680.924927,774.309631 678.618042,774.284607 675.500793,772.959229 
	C679.106567,763.555176 682.429749,754.398010 686.171204,745.415100 
	C687.365417,742.547852 691.330872,742.977295 692.867004,745.966797 
	C694.000549,748.172913 694.772888,750.564697 695.862488,753.228516 
M690.257751,753.009827 
	C689.828369,752.310486 689.352478,750.605286 688.585144,752.535156 
	C687.592896,755.030579 686.184265,757.509216 686.359192,760.404785 
	C688.491516,761.151733 690.347778,761.263367 692.203552,760.091003 
	C692.734802,757.611267 691.069702,755.730408 690.257751,753.009827 
z"/>
<path fill="#000000" opacity="1.000000" stroke="none" 
	d="
M610.618042,766.639771 
	C610.624084,760.196411 610.770874,754.207642 610.588623,748.228943 
	C610.481750,744.723694 611.882019,743.468689 615.283081,743.631653 
	C619.097717,743.814392 622.928223,743.645386 626.751038,743.691406 
	C628.247437,743.709473 629.960022,743.719482 630.051636,745.811646 
	C630.158447,748.252319 628.265198,748.239624 626.584534,748.286499 
	C624.258728,748.351318 621.930237,748.367249 619.603638,748.343445 
	C617.108093,748.317871 615.986877,749.488098 616.006714,751.994812 
	C616.025635,754.388428 616.889954,755.794617 619.483948,755.777405 
	C621.477356,755.764160 623.472717,755.823303 625.464783,755.908142 
	C626.939819,755.970886 628.055969,756.543701 628.119812,758.239441 
	C628.183289,759.927734 627.096985,760.657593 625.657104,760.792725 
	C623.676575,760.978577 621.677368,760.993896 619.685303,761.022766 
	C616.906555,761.063049 615.922302,762.540710 616.007935,765.181335 
	C616.088135,767.657654 617.195129,768.829773 619.682312,768.803162 
	C622.341064,768.774719 625.000916,768.823303 627.659973,768.862183 
	C629.337830,768.886719 630.684082,769.504517 630.737793,771.377991 
	C630.793396,773.319031 629.328369,773.933228 627.731323,773.958130 
	C622.912720,774.033142 618.058716,774.342346 613.282104,773.889648 
	C608.730835,773.458374 611.274231,769.484802 610.618042,766.639771 
z"/>
<path fill="#000000" opacity="1.000000" stroke="none" 
	d="
M320.877075,764.230774 
	C321.726501,766.272156 322.477600,767.939270 323.090271,769.655884 
	C323.609497,771.110535 324.974579,772.901123 322.472107,773.780762 
	C320.504791,774.472351 318.462067,773.763306 318.057739,771.726685 
	C317.026367,766.532166 313.630127,766.050720 309.221497,766.141052 
	C305.748718,766.212341 303.566406,767.056885 302.673187,770.662598 
	C301.879974,773.864685 299.782776,774.803101 296.061584,772.990112 
	C299.704498,763.664307 303.119659,754.378845 307.005432,745.294800 
	C308.217926,742.460205 312.031372,743.143555 313.481232,746.411377 
	C316.036285,752.170349 318.320862,758.049255 320.877075,764.230774 
M312.658783,757.636536 
	C311.685272,755.838135 311.734253,753.514038 309.794922,751.684265 
	C308.365906,754.887451 306.944366,757.613037 307.052856,760.802673 
	C312.703796,762.234070 312.939819,762.127197 312.658783,757.636536 
z"/>
<path fill="#000000" opacity="1.000000" stroke="none" 
	d="
M742.017517,742.953857 
	C744.745605,743.236145 747.037109,743.638916 749.062378,744.899292 
	C750.382751,745.721008 751.630127,746.675476 750.713806,748.489929 
	C749.844788,750.210938 748.463745,750.236755 746.942688,749.374329 
	C745.297302,748.441284 743.522156,748.149658 741.659241,748.237366 
	C739.689087,748.330261 737.924255,748.915833 737.519531,751.068970 
	C737.143372,753.070251 738.654785,754.060974 740.235962,754.739563 
	C742.523376,755.721313 744.892517,756.515137 747.167480,757.522888 
	C750.801025,759.132385 753.297913,761.787598 752.916504,765.957581 
	C752.544922,770.020813 749.854126,772.404541 746.020264,773.594177 
	C741.208923,775.087219 736.836853,774.034729 732.753357,771.367676 
	C731.398438,770.482788 730.552307,769.322754 731.596375,767.609009 
	C732.661926,765.859802 733.965027,766.157715 735.389954,767.075439 
	C737.870972,768.673218 740.576050,769.247375 743.486328,768.758484 
	C745.063232,768.493591 746.344116,767.778687 746.689331,766.071045 
	C747.042236,764.325317 746.086609,763.182129 744.653442,762.468445 
	C743.322510,761.805542 741.914612,761.283447 740.510620,760.783508 
	C733.785339,758.388367 731.280029,755.717651 731.778625,751.010193 
	C732.395447,745.186035 736.708252,743.663391 742.017517,742.953857 
z"/>
<path fill="#000000" opacity="1.000000" stroke="none" 
	d="
M555.249023,773.621765 
	C553.158081,772.282532 554.093506,770.846741 554.607178,769.503967 
	C557.450439,762.070862 560.338684,754.655090 563.184448,747.223022 
	C563.928528,745.279541 564.715881,743.607056 567.305298,743.689819 
	C569.653015,743.764832 570.365540,745.368530 571.039429,747.085083 
	C573.947815,754.492737 576.846680,761.904358 579.693909,769.335632 
	C580.250610,770.788879 581.478760,772.623718 579.138489,773.552063 
	C576.869812,774.451965 575.060608,773.372009 574.600891,771.068726 
	C573.711304,766.612366 570.825928,766.100220 566.933533,766.104492 
	C563.164062,766.108704 560.464661,766.770935 559.603455,770.918640 
	C559.182251,772.947388 557.823669,774.049438 555.249023,773.621765 
M564.737244,757.012451 
	C564.445801,758.375305 563.283569,759.669495 564.481567,761.319763 
	C566.439087,761.544617 568.493958,762.218567 570.781128,760.459839 
	C569.667664,757.407043 568.578918,754.421875 567.140381,750.477722 
	C566.195862,753.063599 565.597107,754.702820 564.737244,757.012451 
z"/>
<path fill="#000000" opacity="1.000000" stroke="none" 
	d="
M328.015381,752.670776 
	C327.908051,748.116333 329.943085,745.285156 333.770172,743.906921 
	C338.089142,742.351562 342.285278,742.828857 346.164398,745.398560 
	C347.466766,746.261353 347.902405,747.420288 347.052063,748.807678 
	C346.196625,750.203491 344.948120,750.295654 343.595856,749.561707 
	C341.475555,748.410767 339.226624,747.990234 336.845581,748.337891 
	C335.241211,748.572144 333.972076,749.371338 333.589905,751.002014 
	C333.168488,752.799988 334.398773,753.849548 335.799744,754.473572 
	C338.378021,755.621887 341.051819,756.553589 343.666748,757.622253 
	C347.295868,759.105408 349.220306,761.900452 349.129852,765.756897 
	C349.036835,769.722290 346.559021,772.045410 342.985352,773.383911 
	C338.436340,775.087646 334.131836,774.250183 330.006134,772.096924 
	C328.422516,771.270508 326.487671,770.301758 327.743011,767.926086 
	C328.980438,765.584351 330.635071,766.508667 332.360901,767.461975 
	C334.833588,768.827881 337.364288,770.236267 340.365631,769.112183 
	C341.816376,768.568909 343.133514,767.764709 343.420258,766.113281 
	C343.728546,764.337708 342.490906,763.278503 341.139648,762.610168 
	C339.062164,761.582642 336.878418,760.762085 334.713837,759.920410 
	C331.436951,758.646240 328.926788,756.666016 328.015381,752.670776 
z"/>
<path fill="#000000" opacity="1.000000" stroke="none" 
	d="
M287.031403,761.212341 
	C282.370514,760.635986 281.143555,762.606812 281.203125,766.649597 
	C281.238464,769.049500 283.097931,773.411987 278.923767,773.534424 
	C274.284241,773.670532 276.131836,769.119446 276.021759,766.521667 
	C275.761292,760.376709 276.006775,754.212280 275.899811,748.058289 
	C275.845215,744.917664 277.026886,743.489441 280.297211,743.613037 
	C284.283600,743.763733 288.281433,743.616089 292.274292,743.588867 
	C293.851318,743.578125 295.385712,743.599121 295.339172,745.816040 
	C295.297241,747.813599 294.003052,748.282776 292.328766,748.295959 
	C289.999786,748.314270 287.668243,748.411377 285.342468,748.334106 
	C282.268494,748.231995 281.388855,749.808411 281.291199,752.654236 
	C281.189331,755.622070 282.547119,756.470764 285.175659,756.361633 
	C286.664703,756.299866 288.163605,756.485718 289.653534,756.432556 
	C291.323151,756.372925 293.271027,755.921021 293.568939,758.284546 
	C293.899384,760.906006 291.914948,761.143127 289.965668,761.189697 
	C289.134155,761.209595 288.302063,761.204346 287.031403,761.212341 
z"/>
<path fill="#000000" opacity="1.000000" stroke="none" 
	d="
M708.025269,752.128174 
	C708.018188,750.820251 707.930115,749.981262 708.021790,749.162292 
	C708.275330,746.898926 707.072693,743.597595 711.102905,743.671265 
	C714.774353,743.738403 713.802490,746.826721 713.869629,748.933960 
	C714.022827,753.743042 714.144531,758.568542 713.913452,763.369751 
	C713.715454,767.482788 715.269043,769.211670 719.396851,768.785400 
	C721.201050,768.599121 723.044800,768.757568 724.868896,768.815063 
	C726.393799,768.862915 727.398438,769.544373 727.408936,771.220337 
	C727.418884,772.801270 726.614502,773.829529 725.057617,773.857910 
	C720.416687,773.942627 715.769958,774.003418 711.132202,773.859436 
	C708.465149,773.776733 708.139404,771.628479 708.117798,769.535217 
	C708.059631,763.892517 708.053223,758.249268 708.025269,752.128174 
z"/>
<path fill="#000000" opacity="1.000000" stroke="none" 
	d="
M586.248779,743.682434 
	C591.547668,743.681824 596.375854,743.666016 601.203857,743.692078 
	C602.895020,743.701233 604.795837,743.674561 604.728271,746.102661 
	C604.670898,748.164795 602.955627,748.415771 601.453979,748.259155 
	C596.866150,747.780701 595.726807,750.072266 595.923950,754.199707 
	C596.169861,759.348633 596.020325,764.519287 595.944580,769.679138 
	C595.917664,771.515137 595.800598,773.632263 593.280151,773.728699 
	C590.658020,773.829041 590.618896,771.756592 590.562195,769.869629 
	C590.397522,764.388306 590.122986,758.906799 590.124329,753.425354 
	C590.125122,750.058228 589.309631,747.943665 585.368835,748.239014 
	C583.622070,748.369934 581.231934,748.508911 581.447266,745.759521 
	C581.657715,743.071899 584.082397,743.888550 586.248779,743.682434 
z"/>
<path fill="#000000" opacity="1.000000" stroke="none" 
	d="
M670.329712,764.930542 
	C670.327332,767.251587 670.340271,769.083679 670.318298,770.915344 
	C670.297668,772.635315 669.613708,773.884521 667.709473,773.855408 
	C665.865784,773.827087 665.007141,772.574219 664.989624,770.905212 
	C664.905701,762.912354 664.880798,754.918640 664.890503,746.925232 
	C664.892822,745.026245 665.690063,743.726379 667.895264,743.839233 
	C669.942993,743.944092 670.292480,745.357544 670.302063,746.953796 
	C670.337036,752.782837 670.324463,758.612183 670.329712,764.930542 
z"/>
<path fill="#000000" opacity="1.000000" stroke="none" 
	d="
M387.869507,754.045166 
	C387.936920,751.064575 387.924774,748.569397 388.105530,746.088196 
	C388.218170,744.542358 389.220306,743.781921 390.822662,743.828857 
	C392.488800,743.877686 393.232819,744.799927 393.237457,746.350952 
	C393.262390,754.657288 393.269592,762.963806 393.252441,771.270203 
	C393.249237,772.816772 392.473907,773.827637 390.835388,773.807251 
	C388.694092,773.780579 387.985016,772.324402 387.960693,770.485657 
	C387.890289,765.169800 387.895782,759.852966 387.869507,754.045166 
z"/>
</svg>